<?xml version="1.0" standalone="no"?>
<!DOCTYPE svg PUBLIC "-//W3C//DTD SVG 20010904//EN"
 "http://www.w3.org/TR/2001/REC-SVG-20010904/DTD/svg10.dtd">
<svg version="1.0" xmlns="http://www.w3.org/2000/svg"
 width="300.000000pt" height="300.000000pt" viewBox="0 0 300.000000 300.000000"
 preserveAspectRatio="xMidYMid meet">
<metadata>
Created by potrace 1.10, written by Peter Selinger 2001-2011
</metadata>
<g transform="translate(0.000000,300.000000) scale(0.100000,-0.100000)"
fill="#000000" stroke="none">
<path d="M1454 2433 c-14 -21 -175 -297 -358 -613 -182 -316 -361 -624 -398
-685 -116 -193 -287 -496 -300 -532 -9 -24 -9 -39 -2 -51 10 -16 77 -18 885
-25 481 -4 969 -6 1085 -5 222 3 244 8 244 50 0 11 -155 288 -343 616 -189
329 -399 694 -467 812 -265 465 -268 470 -301 470 -11 0 -30 -16 -45 -37z
m122 -110 c37 -65 165 -287 284 -493 120 -206 244 -420 275 -475 32 -55 92
-158 133 -230 225 -389 322 -557 322 -561 0 -2 -490 -4 -1090 -4 -600 0 -1090
3 -1090 6 0 4 53 97 119 208 65 110 197 338 293 506 164 286 247 430 380 660
30 52 98 169 150 260 133 230 139 240 148 240 5 0 39 -53 76 -117z"/>
<path d="M1439 2318 c-51 -91 -259 -449 -481 -833 -61 -104 -113 -194 -116
-199 -3 -5 1 -6 8 -1 8 5 11 3 8 -6 -3 -8 -10 -14 -17 -14 -16 0 -30 -25 -23
-43 4 -11 1 -13 -8 -7 -9 5 -11 4 -6 -4 4 -6 12 -8 18 -5 6 4 9 1 6 -7 -3 -8
-14 -13 -26 -13 -14 1 -19 -3 -14 -14 4 -11 1 -13 -9 -7 -8 4 -1 -6 15 -24 39
-41 40 -56 8 -82 -22 -17 -24 -20 -7 -17 11 2 20 -3 20 -11 0 -15 12 -19 260
-91 99 -29 279 -81 400 -117 269 -79 264 -77 245 -64 -13 10 -13 11 0 10 8 0
24 -4 35 -8 17 -7 17 -8 -8 -15 -15 -3 -39 -4 -54 -1 -23 4 -25 4 -8 -4 12 -6
14 -10 6 -10 -17 -1 -866 214 -921 233 -35 12 -41 12 -56 -5 -15 -17 -15 -18
7 -23 113 -25 258 -57 274 -61 293 -71 690 -154 717 -150 24 4 28 3 13 -3 -20
-9 -20 -9 0 -14 14 -4 6 -8 -25 -14 -44 -8 -44 -8 -15 -15 79 -18 -31 -6 -235
26 -124 19 -254 39 -290 45 -100 14 -501 79 -535 85 -23 5 -33 2 -42 -13 -14
-23 -42 -17 312 -62 608 -77 829 -107 790 -109 -28 -1 -808 93 -1020 123 -85
12 -102 12 -114 0 -8 -7 -12 -16 -9 -19 6 -6 113 -18 448 -50 245 -23 457 -44
617 -60 78 -8 163 -12 190 -9 47 6 120 41 109 52 -3 3 -14 -2 -24 -11 -21 -19
-121 -41 -155 -34 -15 3 -11 5 13 7 l35 3 -35 7 c-31 7 -32 8 -8 9 26 1 138
45 138 54 0 3 -26 -6 -57 -19 -32 -13 -69 -23 -83 -23 -24 1 -23 1 5 10 74 25
116 41 112 45 -2 2 -20 -3 -40 -11 -20 -8 -44 -15 -54 -15 -10 1 4 10 31 20
28 11 60 17 73 14 27 -7 27 -11 9 86 -121 668 -137 774 -126 818 13 52 59 147
67 138 3 -3 -1 -16 -10 -30 -20 -30 -57 -139 -56 -163 1 -12 3 -10 9 7 l8 25
2 -25 2 -25 7 24 c4 16 44 -131 126 -463 101 -410 123 -486 138 -486 21 0 21
7 3 62 -8 24 -42 144 -76 268 -34 124 -84 306 -111 404 -27 99 -48 183 -47
188 3 9 32 -88 203 -696 35 -126 62 -233 59 -237 -3 -5 1 -9 10 -9 8 0 21 -3
30 -6 12 -5 12 2 -4 48 -10 29 -41 125 -68 213 -88 281 -139 446 -183 588 -30
97 -45 133 -50 120 -7 -17 -8 -17 -8 2 0 11 4 28 8 39 5 14 12 2 28 -50 22
-71 192 -611 243 -769 16 -49 36 -116 45 -147 14 -50 20 -58 40 -58 24 0 24 0
8 38 -13 31 -128 356 -153 432 -4 14 -45 130 -89 259 -84 242 -110 338 -40
146 58 -156 181 -506 280 -792 22 -66 37 -94 51 -99 28 -8 32 0 14 33 -8 17
-46 113 -84 214 -39 101 -120 316 -182 477 -61 162 -110 296 -107 298 2 2 43
-98 92 -223 48 -126 116 -300 150 -388 35 -88 85 -220 111 -292 44 -119 51
-133 73 -133 14 0 21 5 18 13 -4 11 -92 218 -262 622 -132 313 -177 426 -173
431 3 2 63 -132 133 -298 70 -167 170 -402 221 -524 52 -121 94 -226 94 -232
0 -7 11 -12 25 -12 14 0 25 2 25 4 0 4 -25 60 -195 431 -151 330 -243 532
-270 593 -19 43 -31 59 -36 50 -7 -10 -9 -10 -9 2 0 13 -1 13 -10 0 -9 -13
-10 -13 -10 0 0 13 -1 13 -10 0 -9 -13 -10 -13 -10 0 0 13 -1 13 -10 0 -17
-26 -11 6 10 56 11 26 23 44 26 41 3 -3 -2 -19 -10 -36 -17 -33 -22 -55 -6
-31 9 13 10 13 10 0 0 -13 1 -13 10 0 9 13 10 13 10 0 0 -11 3 -12 8 -3 4 7
39 -58 87 -160 43 -95 98 -212 121 -262 52 -111 93 -200 219 -477 87 -189 103
-218 123 -218 12 0 22 2 22 4 0 2 -122 249 -271 550 -149 301 -269 549 -267
551 2 3 129 -245 281 -550 257 -516 279 -555 303 -555 l25 0 -32 58 c-100 183
-539 1010 -544 1027 -4 11 6 -2 23 -30 37 -63 514 -947 544 -1009 18 -38 27
-46 49 -46 27 0 24 6 -118 253 -80 138 -227 394 -326 567 -99 173 -185 320
-190 325 -5 6 -4 -1 3 -13 6 -13 9 -26 7 -29 -3 -3 -13 9 -21 26 -19 35 -20
45 -5 35 8 -4 7 0 -1 15 -6 12 -16 18 -22 15 -8 -5 -9 -1 -5 10 5 11 3 15 -5
10 -8 -5 -9 -2 -5 10 5 11 3 15 -5 10 -8 -5 -9 -2 -5 10 4 10 3 15 -3 11 -10
-6 -15 9 -10 30 1 6 -12 -3 -28 -18 -39 -38 -79 -112 -86 -162 -5 -38 -5 -37
8 8 14 49 83 163 92 154 3 -3 -10 -29 -30 -59 -19 -29 -42 -79 -51 -111 -16
-55 -16 -63 10 -225 14 -92 32 -212 41 -267 8 -55 19 -125 24 -155 5 -30 14
-93 20 -140 6 -47 13 -92 16 -100 3 -11 -7 -20 -32 -29 -19 -7 -38 -11 -41 -8
-2 3 5 8 18 12 30 10 3 26 -31 19 -20 -4 -22 -3 -10 5 13 10 13 11 0 11 -13 0
-13 1 0 10 11 8 7 9 -15 5 -18 -3 -23 -2 -13 2 12 6 -76 48 -300 143 -174 74
-341 146 -370 161 -29 14 -55 22 -58 18 -3 -5 -10 -9 -16 -9 -6 0 -6 6 2 15 7
9 19 14 26 11 7 -3 24 4 37 15 28 21 42 25 31 8 -8 -13 -1 -10 64 35 25 17 38
32 32 36 -6 4 20 30 62 62 172 131 444 331 456 335 12 5 18 43 6 43 -5 0 -426
-329 -527 -413 -27 -21 -50 -37 -53 -34 -6 6 571 467 585 467 6 0 11 6 11 14
0 8 3 23 6 33 5 15 4 15 -5 3 -6 -8 -11 -11 -11 -7 0 4 -33 -21 -73 -55 -40
-35 -97 -83 -127 -108 -30 -25 -70 -59 -90 -76 -134 -116 -292 -245 -296 -241
-2 2 64 62 147 133 84 71 203 173 266 227 63 53 130 109 149 123 19 15 34 35
34 45 0 11 -2 19 -5 19 -3 0 -157 -135 -341 -301 -185 -165 -337 -299 -340
-297 -2 3 34 40 81 83 47 42 83 80 80 83 -3 3 -22 -10 -41 -29 -20 -19 -35
-29 -33 -24 6 15 578 565 588 565 4 0 6 11 3 25 -2 14 -5 25 -6 25 -3 0 -308
-309 -547 -553 -96 -98 -173 -182 -172 -185 1 -4 -3 -13 -9 -19 -7 -9 -7 -13
2 -13 10 0 10 -3 0 -15 -7 -8 -9 -15 -5 -15 4 0 2 -6 -4 -13 -8 -10 -7 -14 2
-14 29 -1 747 -297 736 -303 -8 -6 -8 -9 2 -13 8 -3 9 -6 2 -6 -6 -1 -94 29
-195 65 -100 36 -194 69 -208 74 -125 41 -395 142 -400 150 -4 6 -13 3 -23 -8
-16 -18 -8 -21 220 -96 131 -43 323 -106 426 -139 103 -34 183 -63 178 -65 -9
-3 -205 58 -651 203 -91 29 -178 59 -195 65 -16 6 -31 11 -32 11 -2 -1 -3 1
-3 4 0 3 2 4 4 3 2 -2 13 5 23 15 11 9 23 14 28 10 4 -5 5 -2 1 5 -5 8 -3 11
5 10 7 -2 13 4 14 12 0 9 9 15 23 15 12 0 21 3 20 6 -2 3 3 13 10 22 9 10 10
17 2 22 -7 4 -6 12 3 25 7 10 177 186 377 391 334 341 375 387 354 408 -2 2
-30 -25 -61 -60 -32 -35 -89 -98 -128 -139 -242 -260 -322 -346 -405 -437 -51
-57 -95 -101 -98 -99 -6 6 645 717 681 744 14 11 15 17 6 33 -6 12 -13 32 -15
47 -3 14 -7 29 -10 34 -3 4 -33 -27 -67 -70 -397 -491 -530 -652 -535 -648 -4
4 343 439 519 651 69 84 75 94 64 114 l-12 23 -18 -29 c-56 -85 -590 -773
-593 -764 -3 9 -8 9 -18 0 -28 -23 -12 6 55 100 69 97 187 263 410 579 112
158 142 196 128 158 -3 -8 -135 -195 -292 -416 -158 -221 -285 -404 -282 -406
4 -4 212 267 565 738 l43 57 -23 41 c-13 23 -27 40 -33 38 -9 -3 -615 -904
-615 -915 0 -3 7 0 15 7 12 10 15 10 15 0 0 -10 3 -10 15 0 12 10 15 10 15 0
0 -9 7 -7 20 5 36 33 20 1 -25 -50 -25 -27 -45 -45 -45 -39 0 6 11 21 25 34
27 25 35 51 10 30 -12 -10 -15 -10 -15 0 0 10 -3 10 -15 0 -11 -9 -15 -9 -15
-1 0 7 -4 9 -10 6 -5 -3 -10 -4 -10 0 0 3 142 220 315 481 290 437 314 477
301 495 -13 19 -15 17 -46 -33 -188 -308 -554 -888 -557 -884 -2 2 87 152 198
333 112 180 232 375 267 433 36 58 77 123 92 145 21 31 26 45 19 58 -6 9 -14
17 -18 17 -5 0 -32 -42 -62 -92z m170 -320 c-29 -35 -112 -130 -184 -213 -72
-82 -204 -235 -294 -338 -90 -103 -166 -185 -169 -183 -3 3 -11 1 -19 -5 -8
-7 -13 -8 -13 -1 0 14 27 35 32 24 1 -5 57 54 124 132 397 464 567 657 572
652 3 -3 -19 -34 -49 -68z m263 -247 c3 8 5 3 5 -11 0 -14 3 -34 7 -45 5 -13
2 -11 -8 5 -10 16 -15 19 -16 10 0 -13 -1 -13 -10 0 -8 12 -10 12 -10 1 0 -8
-3 -12 -6 -9 -3 4 -1 16 6 27 7 13 7 27 2 37 -7 13 -15 6 -36 -38 -15 -31 -25
-66 -23 -79 2 -13 2 -17 -1 -9 -4 12 -6 11 -13 -5 -8 -20 -8 -20 -8 0 -1 11
13 49 29 83 17 35 28 68 24 73 -3 5 -2 14 2 21 4 7 16 -6 29 -32 14 -28 24
-38 27 -29z m-946 -365 c-18 -29 -21 -40 -6 -31 6 3 10 1 10 -5 0 -6 5 -8 10
-5 6 3 10 1 10 -6 0 -8 4 -8 15 1 26 22 16 0 -20 -44 -19 -24 -35 -46 -35 -49
0 -7 22 -3 38 6 7 5 12 3 12 -4 0 -8 5 -8 18 2 9 7 2 -3 -17 -24 -28 -29 -32
-39 -22 -51 8 -10 9 -16 1 -21 -6 -3 -8 -10 -5 -15 3 -4 -3 -7 -12 -5 -23 3
-45 -14 -36 -29 3 -6 2 -8 -2 -3 -5 4 -19 -3 -31 -14 -23 -22 -23 -22 -19 -1
2 12 -6 29 -20 42 -21 20 -25 57 -5 45 15 -10 32 23 21 42 -6 12 -6 25 0 34 9
14 10 12 14 -29 1 -12 6 -26 10 -30 5 -4 5 1 2 11 -4 11 -3 16 3 12 5 -3 7 0
4 8 -3 8 -1 18 4 21 5 3 9 -10 8 -28 0 -19 -4 -32 -8 -30 -4 2 -9 0 -13 -6 -4
-6 -11 -8 -16 -5 -5 3 -6 -2 -2 -11 4 -11 3 -15 -5 -10 -6 3 -14 1 -18 -5 -4
-7 -3 -9 4 -5 6 3 13 2 17 -4 4 -6 11 -7 17 -4 7 5 8 2 3 -7 -7 -11 -6 -12 7
-2 8 7 19 9 23 5 5 -4 5 -1 0 7 -6 10 -4 12 5 6 8 -5 11 -4 6 3 -4 7 0 10 12
7 11 -2 19 3 19 11 0 10 -4 11 -14 3 -9 -8 -13 -8 -13 -1 0 6 5 14 10 17 6 4
7 11 4 17 -4 6 -3 8 2 5 5 -3 10 3 10 13 0 12 -6 17 -18 15 -22 -5 -23 8 -3
25 8 7 15 18 15 24 0 6 -9 0 -20 -14 -11 -14 -20 -21 -20 -17 0 5 11 23 25 41
14 18 25 37 25 42 0 5 -9 -2 -20 -16 -11 -14 -20 -20 -20 -14 0 5 5 15 12 22
6 6 9 14 6 18 -4 3 -14 -9 -23 -26 -9 -18 -12 -29 -6 -26 17 11 12 -7 -9 -34
-11 -14 -20 -20 -20 -13 0 6 5 15 11 18 6 4 8 14 5 22 -6 15 63 138 72 128 3
-2 -3 -16 -12 -29z m135 -120 c-35 -36 -49 -56 -41 -61 7 -4 26 6 46 26 18 18
36 30 39 27 3 -3 -8 -17 -25 -32 -17 -14 -26 -26 -18 -26 7 0 0 -12 -15 -25
-16 -14 -33 -23 -38 -19 -6 3 -17 0 -26 -8 -14 -11 -15 -11 -8 2 6 8 10 20 10
25 0 6 5 10 12 10 18 0 26 12 12 21 -8 4 -10 3 -5 -4 5 -8 1 -10 -9 -6 -13 5
-5 19 41 65 32 33 63 59 68 59 6 0 -14 -24 -43 -54z m69 -56 c-42 -35 -61 -39
-34 -7 10 12 12 16 4 10 -20 -18 -35 -16 -20 2 7 9 21 13 31 10 9 -3 20 -1 24
5 3 5 12 10 18 10 7 0 -4 -14 -23 -30z m-223 0 c-4 -28 -34 -67 -51 -67 -11 0
-13 5 -5 19 5 10 15 17 22 15 7 -1 12 9 12 24 -1 14 5 26 12 26 7 0 11 -8 10
-17z"/>
<path d="M1775 1874 c-8 -9 -21 -14 -28 -11 -7 3 -13 -3 -13 -13 0 -22 20 -14
50 19 22 24 15 29 -9 5z"/>
<path d="M1689 1873 c-2 -6 -71 -75 -154 -153 -258 -247 -345 -333 -341 -338
3 -2 74 58 157 134 84 77 198 179 253 228 56 49 102 93 104 97 2 5 -1 16 -6
25 -5 9 -11 12 -13 7z"/>
<path d="M1625 1579 c-27 -22 -139 -105 -248 -186 -127 -93 -194 -149 -186
-153 8 -5 -8 -21 -46 -46 -55 -37 -56 -39 -34 -48 13 -6 94 -44 179 -84 370
-176 431 -204 435 -200 3 2 -2 87 -10 189 -8 101 -20 252 -26 334 -6 83 -13
156 -15 163 -3 10 -15 5 -42 -15 -81 -63 -394 -275 -398 -270 -3 3 84 67 192
144 234 163 250 173 258 166 3 -4 6 6 6 20 0 15 -3 27 -7 26 -5 0 -30 -18 -58
-40z m49 -176 c4 -60 11 -174 16 -256 6 -81 10 -174 10 -207 l0 -60 -280 140
c-154 77 -280 144 -280 149 0 5 98 73 218 151 119 78 233 153 252 166 19 13
40 24 46 24 8 0 14 -36 18 -107z"/>
<path d="M1580 1448 c-148 -97 -316 -205 -368 -238 -29 -19 -49 -37 -45 -41 5
-4 112 -60 238 -124 127 -65 241 -124 253 -132 13 -8 25 -13 26 -11 2 3 -5
155 -22 459 l-7 135 -75 -48z m73 -255 c4 -141 5 -258 3 -260 -5 -5 -456 241
-456 249 0 4 48 36 108 72 59 35 154 94 212 130 58 36 110 66 116 66 7 0 13
-82 17 -257z"/>
<path d="M1588 1405 c-20 -14 -39 -25 -41 -25 -3 0 -77 -44 -166 -99 l-162
-99 38 -19 c21 -11 113 -61 204 -111 92 -51 169 -92 173 -92 8 0 6 312 -3 403
l-6 67 -37 -25z m32 -215 c0 -126 -4 -200 -10 -200 -20 0 -335 188 -335 200 0
11 319 200 338 200 4 0 7 -90 7 -200z"/>
<path d="M1578 1354 c-32 -17 -35 -22 -10 -20 15 1 17 -12 17 -151 l0 -152
-30 19 c-85 51 -101 60 -110 60 -9 0 17 -18 117 -79 l37 -22 3 180 c2 100 3
181 3 181 0 -1 -12 -8 -27 -16z"/>
<path d="M1473 1298 c-18 -11 -33 -24 -33 -30 0 -10 44 15 68 39 19 19 2 15
-35 -9z"/>
<path d="M1356 1230 c-63 -35 -67 -39 -47 -49 16 -9 19 -9 16 1 -3 8 17 24 50
42 30 16 55 32 55 37 0 11 7 14 -74 -31z"/>
<path d="M1751 1562 c-1 -7 20 -124 45 -260 98 -530 105 -576 91 -589 -6 -6
-34 -21 -62 -32 -27 -11 -42 -20 -33 -20 9 -1 38 10 64 24 28 15 55 23 67 19
15 -5 18 -2 13 13 -6 18 -40 177 -71 328 -64 312 -113 534 -114 517z"/>
<path d="M1771 1562 c-1 -6 19 -105 44 -220 82 -374 104 -476 122 -567 9 -49
17 -91 18 -91 0 -1 9 -4 20 -8 19 -6 16 14 -46 266 -125 507 -157 633 -158
620z"/>
<path d="M1691 1532 c-1 -18 3 -74 8 -125 6 -51 17 -177 26 -282 8 -104 18
-211 20 -237 4 -30 2 -48 -5 -48 -11 0 -507 229 -620 287 -57 29 -66 31 -79
18 -10 -9 -11 -15 -4 -15 6 0 42 -14 80 -31 107 -48 114 -51 363 -159 129 -56
250 -109 268 -117 l34 -14 -6 38 c-3 21 -12 101 -21 178 -46 405 -63 537 -64
507z"/>
<path d="M1711 1547 c-1 -10 12 -129 29 -265 16 -136 34 -290 40 -342 6 -52
13 -105 16 -117 3 -17 0 -23 -13 -24 -12 0 -8 -5 12 -14 17 -7 31 -12 32 -11
2 1 -9 79 -22 172 -14 93 -39 266 -56 384 -30 212 -37 252 -38 217z"/>
<path d="M767 1133 c-4 -3 0 -14 9 -24 10 -11 12 -19 5 -24 -15 -9 -33 4 -25
17 4 7 2 8 -5 4 -8 -6 -9 -12 -2 -20 6 -7 7 -16 3 -21 -4 -4 2 -3 14 3 38 20
46 37 26 56 -10 9 -22 13 -25 9z"/>
<path d="M904 1103 c2 -10 30 -26 72 -41 92 -33 321 -116 528 -191 93 -34 170
-60 172 -58 2 2 -80 37 -184 77 -103 40 -270 106 -372 147 -213 85 -219 87
-216 66z"/>
<path d="M766 1001 c-19 -21 -47 -11 239 -85 94 -24 277 -71 408 -105 242 -63
337 -79 140 -23 -367 103 -750 215 -759 223 -7 6 -17 2 -28 -10z"/>
<path d="M673 919 c-20 -20 -15 -29 13 -29 14 0 44 -4 67 -10 23 -5 116 -23
207 -40 91 -17 197 -37 235 -45 232 -47 388 -76 397 -73 6 2 -79 23 -188 47
-239 52 -355 78 -409 91 -22 5 -92 21 -155 35 -63 14 -124 27 -135 31 -11 3
-26 -1 -32 -7z"/>
<path d="M626 871 c-17 -18 -16 -19 26 -26 156 -24 449 -70 721 -115 176 -28
260 -38 290 -33 41 7 42 7 12 14 -16 4 -39 7 -50 7 -16 0 -15 -2 5 -8 42 -13
-1 -11 -85 5 -77 15 -377 71 -535 100 -187 34 -336 64 -351 70 -9 3 -23 -3
-33 -14z"/>
<path d="M511 711 c-10 -17 -3 -19 112 -25 67 -4 181 -11 252 -16 416 -31 792
-54 875 -54 102 0 194 19 169 35 -8 5 -15 5 -17 -1 -2 -4 -33 -14 -70 -20 -66
-12 -316 7 -1117 85 -191 19 -192 19 -204 -4z"/>
<path d="M480 661 c-5 -11 -10 -22 -10 -25 0 -3 48 -6 108 -6 59 0 303 -7 542
-16 783 -28 683 -15 -370 46 -85 5 -178 12 -207 15 -45 4 -54 2 -63 -14z"/>
<path d="M1953 633 c-13 -2 -23 -9 -23 -14 0 -12 4 -11 35 3 18 8 29 9 33 1 4
-5 21 -13 37 -16 30 -7 30 -7 -5 13 -36 20 -39 20 -77 13z"/>
<path d="M442 596 l-12 -26 788 2 c433 1 753 3 712 5 -41 1 -338 9 -660 18
-322 8 -637 18 -700 21 l-116 6 -12 -26z"/>
<path d="M1770 600 l-75 -6 75 -2 c41 0 93 3 115 7 l40 9 -40 -1 c-22 0 -74
-3 -115 -7z"/>
</g>
</svg>
